<?xml version="1.0" ?><svg data-name="Layer 1" height="88" id="Layer_1" viewBox="0 0 88 88" width="88" xmlns="http://www.w3.org/2000/svg"><title/><path d="M55.47,64.48H32.53a14.75,14.75,0,0,1,0-29.49H57.11c6.85,0,13.1,7,13.1,14.74A14.74,14.74,0,0,1,55.47,64.48ZM32.53,38.27a11.47,11.47,0,1,0,0,22.93H55.47A11.47,11.47,0,0,0,66.94,49.73c0-6.45-5.28-11.46-9.83-11.46Z"/><path d="M30.89,43.18h3.28V56.29H30.89Z"/><path d="M26,48.1h13.1v3.27H26ZM45.64,31.71H42.36V28.44a4.92,4.92,0,0,1,4.92-4.92V26.8a1.63,1.63,0,0,0-1.64,1.64Zm5.59,17.68a1.65,1.65,0,0,0-2.31,0l-2.33-2.31a4.91,4.91,0,0,1,6.95,0h0Z"/><path d="M46.61,54a4.91,4.91,0,0,1,0-7l2.31,2.33a1.58,1.58,0,0,0-.48,1.14,1.65,1.65,0,0,0,.48,1.17Zm14.45-4.64a1.65,1.65,0,0,0-2.31,0l-2.33-2.31a4.91,4.91,0,0,1,6.95,0h0Z"/><path d="M56.44,54a4.91,4.91,0,0,1,0-7l2.31,2.33a1.58,1.58,0,0,0-.48,1.14,1.65,1.65,0,0,0,.48,1.17Z"/></svg>