<?xml version="1.0" encoding="UTF-8" standalone="no"?>
<svg
   xmlns:dc="http://purl.org/dc/elements/1.1/"
   xmlns:cc="http://creativecommons.org/ns#"
   xmlns:rdf="http://www.w3.org/1999/02/22-rdf-syntax-ns#"
   xmlns:svg="http://www.w3.org/2000/svg"
   xmlns="http://www.w3.org/2000/svg"
   xmlns:sodipodi="http://sodipodi.sourceforge.net/DTD/sodipodi-0.dtd"
   xmlns:inkscape="http://www.inkscape.org/namespaces/inkscape"
   inkscape:version="1.0 (4035a4f, 2020-05-01)"
   sodipodi:docname="Crop-Second_002.svg"
   xml:space="preserve"
   enable-background="new 0 0 1080 1080"
   viewBox="0 0 1080 1080"
   height="1080px"
   width="1080px"
   y="0px"
   x="0px"
   id="Layer_1"
   version="1.1"><metadata
   id="metadata25"><rdf:RDF><cc:Work
       rdf:about=""><dc:format>image/svg+xml</dc:format><dc:type
         rdf:resource="http://purl.org/dc/dcmitype/StillImage" /></cc:Work></rdf:RDF></metadata><defs
   id="defs23" /><sodipodi:namedview
   inkscape:current-layer="g16"
   inkscape:window-maximized="1"
   inkscape:window-y="22"
   inkscape:window-x="0"
   inkscape:cy="540"
   inkscape:cx="540"
   inkscape:zoom="0.55092593"
   showgrid="false"
   id="namedview21"
   inkscape:window-height="965"
   inkscape:window-width="1920"
   inkscape:pageshadow="2"
   inkscape:pageopacity="0"
   guidetolerance="10"
   gridtolerance="10"
   objecttolerance="10"
   borderopacity="1"
   bordercolor="#666666"
   pagecolor="#ffffff" />
<g
   id="g18">
	<g
   id="g16">
		<path
   id="path10"
   d="M1081.818,1081.818c-360.304,0-720.561,0-1080.772,0    c0-360.304,0-720.561,0-1080.772c360.304,0,720.561,0,1080.772,0C1081.818,361.351,1081.818,721.607,1081.818,1081.818z     M267.563,663.073c0.6,0.17,1.2,0.34,1.8,0.51c0,2.279,0,4.559,0,6.837c0,53.987,0.164,107.977-0.202,161.962    c-0.047,6.917,2.603,11.86,7.286,15.39c17.221,12.978,34.725,25.592,52.391,37.961c6.875,4.813,14.432,8.662,21.74,12.841    c2.198,1.257,4.606,2.145,8.125,3.752c0-138.09,0-274.88,0-412.409c3.17,1.112,5.375,1.769,7.488,2.645    c34.539,14.313,69.063,28.66,103.597,42.983c17.956,7.449,35.927,14.864,53.887,22.302c2.396,0.992,3.809,2.125,3.799,5.414    c-0.174,59.822-0.134,119.646-0.14,179.468c0,0.666,0.035,1.334,0.008,1.999c-0.135,3.386,1.527,4.832,4.861,4.788    c5.498-0.071,10.998-0.006,16.497-0.009c6.828-0.004,6.833-0.009,6.833-6.818c0.002-57.989,0.081-115.979-0.134-173.969    c-0.02-5.206,1.722-7.859,6.273-9.765c10.572-4.428,21.143-8.901,31.459-13.883c5.43-2.62,10.813-3.642,16.781-3.614    c35.16,0.157,70.32,0.075,105.481,0.079c8.903,0,8.911,0.008,8.912,8.959c0.002,114.646-0.001,229.291,0.017,343.938    c0,2.217,0.224,4.435,0.387,7.457c7.919-4.349,15.06-8.063,22.001-12.12c21.133-12.353,40.923-26.63,59.495-42.55    c4.822-4.136,7.562-9.128,7.508-16.383c-0.395-52.488-0.219-104.979-0.189-157.47c0.001-2.363,0.322-4.725,0.494-7.088    c0.584-0.163,1.169-0.326,1.753-0.489c20.001,33.894,40.003,67.786,60.258,102.11c1.142-1.563,1.946-2.592,2.676-3.673    c19.833-29.401,34.696-61.194,46.46-94.606c3.761-10.684,5.993-20.256-3.321-29.066c-0.898-0.85-1.07-2.418-1.777-3.525    c-15.37-24.085-30.725-48.179-46.172-72.215c-17.413-27.096-34.72-54.264-52.489-81.126c-5.701-8.62-8.183-17.287-8.12-27.768    c0.417-69.486,0.181-138.974,0.288-208.461c0.007-4.831-1.832-8.746-6.021-9.704c-2.11-0.483-5.646,2.492-7.636,4.711    c-10.857,12.11-21.437,24.471-32.108,36.747c-10.674,12.277-21.314,24.581-32.035,36.815c-3.884,4.433-7.955,8.701-12.311,13.449    c-8.579-13.201-16.73-25.571-24.705-38.056c-11.372-17.804-22.554-35.728-33.929-53.53c-9.253-14.479-18.755-28.799-27.988-43.292    c-10.741-16.857-21.241-33.869-32.059-50.676c-1.088-1.69-3.546-3.232-5.541-3.486c-12.327-1.569-24.677-3.327-37.072-3.905    c-14.134-0.66-28.344-0.649-42.479-0.002c-12.229,0.56-24.43,2.194-36.568,3.889c-2.48,0.347-5.335,2.603-6.808,4.792    c-7.004,10.416-13.556,21.135-20.337,31.702c-6.157,9.597-12.462,19.1-18.596,28.713c-11.633,18.232-23.174,36.523-34.783,54.771    c-6.115,9.612-12.321,19.167-18.438,28.778c-8.228,12.926-16.411,25.882-24.975,39.396c-1.977-1.755-3.71-2.996-5.081-4.556    c-10.955-12.471-21.851-24.994-32.746-37.519c-8.061-9.268-16.064-18.583-24.144-27.834c-5.901-6.755-11.933-13.395-17.806-20.173    c-2.286-2.637-4.184-2.366-6.732-0.247c-3.114,2.589-3.344,5.816-3.342,9.43c0.042,71.487,0.002,142.974,0.089,214.461    c0.006,5.208-1.125,9.62-4.342,13.874c-4.278,5.658-7.96,11.775-11.762,17.781c-11.214,17.716-22.294,35.519-33.558,53.205    c-8.696,13.653-17.662,27.136-26.378,40.776c-12.003,18.784-23.528,37.889-36.01,56.349c-4.402,6.509-5.16,12.029-2.709,19.299    c8.895,26.381,19.464,51.997,33.274,76.192c5.327,9.334,11.177,18.369,17.501,28.704    C226.591,732.482,247.077,697.778,267.563,663.073z"
   fill="#FFFFFF"
   clip-rule="evenodd"
   fill-rule="evenodd" />
		<path
   style="stroke-width:1.36495"
   id="path12"
   d="M 166.98577,730.53398 C 138.82424,777.57005 110.66273,824.60477 81.584294,873.17099 72.890872,859.16385 64.849044,846.91861 57.52617,834.26814 38.540582,801.47638 24.011679,766.75738 11.785351,731.00427 c -3.3693187,-9.85311 -2.3273177,-17.33443 3.723986,-26.15615 17.158649,-25.01904 33.001737,-50.9109 49.501919,-76.37042 11.981635,-18.4878 24.30694,-36.76011 36.261094,-55.26418 15.48428,-23.97002 30.71428,-48.09863 46.13122,-72.10931 5.22649,-8.14 10.28805,-16.43179 16.16888,-24.09879 4.42233,-5.76549 5.97844,-11.74514 5.96882,-18.80359 -0.1196,-96.88712 -0.0646,-193.7756 -0.12234,-290.66137 -0.003,-4.8981 0.3148,-9.27033 4.59414,-12.78059 3.50267,-2.8719 6.1118,-3.23919 9.2543,0.33476 8.07345,9.1863 16.36546,18.18557 24.4774,27.34069 11.10734,12.53799 22.10885,25.16407 33.19006,37.72374 14.97705,16.97526 29.95547,33.94646 45.015,50.84992 1.88467,2.11563 4.26698,3.79622 6.9847,6.17478 11.7727,-18.31566 23.02163,-35.87372 34.33242,-53.39382 8.40887,-13.02591 16.94007,-25.97726 25.34619,-39.00315 15.95856,-24.73172 31.82365,-49.52306 47.81521,-74.23174 8.43223,-13.028605 17.09816,-25.908126 25.56338,-38.915048 9.32165,-14.321573 18.3285,-28.850507 27.9567,-42.966073 2.02351,-2.966776 5.94819,-6.024357 9.35876,-6.49465 16.68576,-2.297253 33.45813,-4.513186 50.26898,-5.270805 19.43098,-0.876886 38.96506,-0.891794 58.39466,0.0028 17.04044,0.78337 34.01625,3.164651 50.96183,5.29249 2.74247,0.344249 6.12141,2.434138 7.61705,4.724613 14.86983,22.78007 29.30388,45.835268 44.07059,68.681746 12.69234,19.641167 25.75448,39.049217 38.47432,58.674127 15.63688,24.12725 31.00845,48.41984 46.64121,72.5498 10.96301,16.91971 22.16796,33.68626 33.96127,51.57773 5.98669,-6.43503 11.58435,-12.21949 16.92357,-18.22759 14.73786,-16.58222 29.36435,-33.25797 44.03761,-49.89577 14.67049,-16.63781 29.21314,-33.39081 44.13794,-49.80362 2.73423,-3.00744 7.59507,-7.04084 10.497,-6.38487 5.75849,1.29839 8.28652,6.60578 8.27689,13.15193 -0.14708,94.1765 0.17734,188.35573 -0.3959,282.52951 -0.0866,14.20501 3.32533,25.95015 11.16234,37.63428 24.4279,36.40637 48.21797,73.22745 72.15515,109.95097 21.2345,32.57625 42.3425,65.23113 63.4712,97.87379 0.972,1.50033 1.2084,3.62681 2.4428,4.77747 12.8037,11.94165 9.7355,24.91469 4.5653,39.39348 -16.1716,45.28366 -36.6033,88.37306 -63.8672,128.22056 -1.0021,1.46509 -2.1088,2.85971 -3.6786,4.97806 -27.84396,-46.51969 -55.34014,-92.45526 -82.83494,-138.39082 -0.8028,0.22092 -1.60698,0.44183 -2.4098,0.66275 -0.23644,3.2026 -0.6777,6.40384 -0.67908,9.60644 -0.0399,71.14028 -0.28181,142.28192 0.25982,213.42084 0.0743,9.83278 -3.69238,16.5985 -10.32104,22.20407 -25.5304,21.57654 -52.73514,40.92634 -81.78608,57.66844 -9.54159,5.4999 -19.35812,10.5321 -30.24414,16.4264 -0.22408,-4.0958 -0.532,-7.1018 -0.532,-10.1065 -0.0248,-155.38104 -0.0205,-310.76203 -0.0234,-466.14302 -9.9e-4,-12.1314 -0.0123,-12.14224 -12.25109,-12.14224 -48.33482,-0.005 -96.66826,0.10571 -145.00171,-0.10708 -8.20404,-0.0366 -15.60527,1.34719 -23.06836,4.89809 -14.18111,6.75082 -28.71277,12.81448 -43.24579,18.81579 -6.25751,2.58187 -8.6508,6.17886 -8.62331,13.23462 0.29554,78.59313 0.18694,157.18762 0.1842,235.78211 0,9.22968 -0.007,9.23509 -9.39312,9.24051 -7.55933,0.004 -15.12001,-0.0854 -22.67797,0.0122 -4.58178,0.0597 -6.86785,-1.90015 -6.68227,-6.48924 0.0371,-0.90127 -0.0111,-1.80663 -0.0111,-2.70926 0.007,-81.07742 -0.0468,-162.15756 0.19246,-243.23498 0.0137,-4.45762 -1.93004,-5.99318 -5.22238,-7.33765 -24.6891,-10.08081 -49.39333,-20.13179 -74.07692,-30.22615 -47.4729,-19.41212 -94.93207,-38.85677 -142.41184,-58.25533 -2.90605,-1.18726 -5.93583,-2.0777 -10.29353,-3.58481 0,186.39459 0,371.78759 0,558.94254 -4.83748,-2.178 -8.14769,-3.3816 -11.16922,-5.0851 -10.04609,-5.6638 -20.43448,-10.879 -29.88535,-17.4036 -24.28495,-16.7639 -48.34582,-33.8597 -72.02041,-51.44898 -6.43758,-4.7829 -10.08047,-11.48355 -10.01586,-20.85824 0.50313,-73.16647 0.27768,-146.33971 0.27768,-219.5089 0,-3.08739 0,-6.1775 0,-9.26626 -0.82342,-0.23176 -1.64822,-0.46216 -2.47302,-0.69256 z M 542.81956,101.52461 c -3.87933,6.4567 -6.95721,11.59197 -10.0461,16.72047 -9.6227,15.98183 -19.29489,31.93249 -28.86123,47.94414 -10.13821,16.96984 -20.15268,34.01016 -30.26339,50.99492 -9.77117,16.41283 -19.60281,32.78905 -29.39598,49.18832 -9.88388,16.5497 -19.7279,33.12381 -29.64203,49.65724 -10.96988,18.29534 -22.14183,36.4782 -32.8134,54.94025 -1.23172,2.13055 -0.8688,6.42959 0.56222,8.5249 3.2841,4.81 7.70367,8.86239 11.62423,13.2563 13.86769,15.54407 27.76561,31.06237 41.56456,46.66471 17.54219,19.83363 34.98402,39.75399 52.50145,59.6093 15.12276,17.14198 30.38437,34.16604 45.39166,51.40424 6.55718,7.53146 13.5034,7.62362 19.9781,0.0664 10.74305,-12.54069 21.60297,-24.99058 32.58246,-37.33204 17.75801,-19.96238 35.73046,-39.73908 53.46923,-59.715 21.19055,-23.86298 42.15429,-47.92382 63.42459,-71.71765 3.06276,-3.42352 3.80509,-6.1748 1.42552,-10.11198 -8.36762,-13.84722 -16.43694,-27.87334 -24.87467,-41.68123 -9.21168,-15.07242 -18.98835,-29.81415 -28.00344,-44.99769 -10.41589,-17.5391 -20.0537,-35.5295 -30.42147,-53.10111 -14.61964,-24.77915 -29.60492,-49.34687 -44.42114,-74.01218 -10.97537,-18.2696 -21.93289,-36.5514 -33.78117,-56.30234 z"
   clip-rule="evenodd"
   fill-rule="evenodd" />
		<path
   id="path14"
   d="M540.962,198.966c8.619,14.572,16.59,28.062,24.574,41.542    c10.778,18.199,21.68,36.327,32.314,54.609c7.542,12.964,14.553,26.238,22.13,39.18c6.559,11.203,13.67,22.081,20.371,33.201    c6.138,10.188,12.008,20.537,18.095,30.754c1.73,2.905,1.19,4.935-1.037,7.461c-15.473,17.556-30.723,35.308-46.138,52.916    c-12.904,14.739-25.979,29.331-38.896,44.06c-7.987,9.106-15.887,18.292-23.702,27.545c-4.71,5.576-9.764,5.508-14.533-0.049    c-10.917-12.719-22.019-25.28-33.02-37.928c-12.743-14.65-25.431-29.348-38.192-43.982    c-10.039-11.512-20.148-22.962-30.236-34.431c-2.852-3.242-6.067-6.231-8.456-9.781c-1.041-1.546-1.304-4.717-0.409-6.29    c7.763-13.622,15.89-27.038,23.87-40.537c7.212-12.199,14.373-24.428,21.563-36.639c7.125-12.1,14.276-24.184,21.384-36.293    c7.355-12.532,14.641-25.105,22.015-37.626c6.958-11.815,13.995-23.584,20.995-35.375    C535.901,207.519,538.14,203.73,540.962,198.966z"
   fill="#FFFFFF"
   clip-rule="evenodd"
   fill-rule="evenodd" />
	</g>
</g>
</svg>
