<?xml version="1.0" encoding="utf-8"?>
<!-- Generator: Adobe Illustrator 16.0.0, SVG Export Plug-In . SVG Version: 6.00 Build 0)  -->
<!DOCTYPE svg PUBLIC "-//W3C//DTD SVG 1.1//EN" "http://www.w3.org/Graphics/SVG/1.1/DTD/svg11.dtd">
<svg version="1.1" id="Layer_1" xmlns="http://www.w3.org/2000/svg" xmlns:xlink="http://www.w3.org/1999/xlink" x="0px" y="0px"
	 width="1080px" height="1080px" viewBox="0 0 1080 1080" enable-background="new 0 0 1080 1080" xml:space="preserve">
<g>
	<g>
		<path fill-rule="evenodd" clip-rule="evenodd" fill="#FFFFFF" d="M1081.818,1081.818c-360.304,0-720.561,0-1080.772,0
			c0-360.304,0-720.561,0-1080.772c360.304,0,720.561,0,1080.772,0C1081.818,361.351,1081.818,721.607,1081.818,1081.818z
			 M267.563,663.073c0.6,0.17,1.2,0.34,1.8,0.51c0,2.279,0,4.559,0,6.837c0,53.987,0.164,107.977-0.202,161.962
			c-0.047,6.917,2.603,11.86,7.286,15.39c17.221,12.978,34.725,25.592,52.391,37.961c6.875,4.813,14.432,8.662,21.74,12.841
			c2.198,1.257,4.606,2.145,8.125,3.752c0-138.09,0-274.88,0-412.409c3.17,1.112,5.375,1.769,7.488,2.645
			c34.539,14.313,69.063,28.66,103.597,42.983c17.956,7.449,35.927,14.864,53.887,22.302c2.396,0.992,3.809,2.125,3.799,5.414
			c-0.174,59.822-0.134,119.646-0.14,179.468c0,0.666,0.035,1.334,0.008,1.999c-0.135,3.386,1.527,4.832,4.861,4.788
			c5.498-0.071,10.998-0.006,16.497-0.009c6.828-0.004,6.833-0.009,6.833-6.818c0.002-57.989,0.081-115.979-0.134-173.969
			c-0.02-5.206,1.722-7.859,6.273-9.765c10.572-4.428,21.143-8.901,31.459-13.883c5.43-2.62,10.813-3.642,16.781-3.614
			c35.16,0.157,70.32,0.075,105.481,0.079c8.903,0,8.911,0.008,8.912,8.959c0.002,114.646-0.001,229.291,0.017,343.938
			c0,2.217,0.224,4.435,0.387,7.457c7.919-4.349,15.06-8.063,22.001-12.12c21.133-12.353,40.923-26.63,59.495-42.55
			c4.822-4.136,7.562-9.128,7.508-16.383c-0.395-52.488-0.219-104.979-0.189-157.47c0.001-2.363,0.322-4.725,0.494-7.088
			c0.584-0.163,1.169-0.326,1.753-0.489c20.001,33.894,40.003,67.786,60.258,102.11c1.142-1.563,1.946-2.592,2.676-3.673
			c19.833-29.401,34.696-61.194,46.46-94.606c3.761-10.684,5.993-20.256-3.321-29.066c-0.898-0.85-1.07-2.418-1.777-3.525
			c-15.37-24.085-30.725-48.179-46.172-72.215c-17.413-27.096-34.72-54.264-52.489-81.126c-5.701-8.62-8.183-17.287-8.12-27.768
			c0.417-69.486,0.181-138.974,0.288-208.461c0.007-4.831-1.832-8.746-6.021-9.704c-2.11-0.483-5.646,2.492-7.636,4.711
			c-10.857,12.11-21.437,24.471-32.108,36.747c-10.674,12.277-21.314,24.581-32.035,36.815c-3.884,4.433-7.955,8.701-12.311,13.449
			c-8.579-13.201-16.73-25.571-24.705-38.056c-11.372-17.804-22.554-35.728-33.929-53.53c-9.253-14.479-18.755-28.799-27.988-43.292
			c-10.741-16.857-21.241-33.869-32.059-50.676c-1.088-1.69-3.546-3.232-5.541-3.486c-12.327-1.569-24.677-3.327-37.072-3.905
			c-14.134-0.66-28.344-0.649-42.479-0.002c-12.229,0.56-24.43,2.194-36.568,3.889c-2.48,0.347-5.335,2.603-6.808,4.792
			c-7.004,10.416-13.556,21.135-20.337,31.702c-6.157,9.597-12.462,19.1-18.596,28.713c-11.633,18.232-23.174,36.523-34.783,54.771
			c-6.115,9.612-12.321,19.167-18.438,28.778c-8.228,12.926-16.411,25.882-24.975,39.396c-1.977-1.755-3.71-2.996-5.081-4.556
			c-10.955-12.471-21.851-24.994-32.746-37.519c-8.061-9.268-16.064-18.583-24.144-27.834c-5.901-6.755-11.933-13.395-17.806-20.173
			c-2.286-2.637-4.184-2.366-6.732-0.247c-3.114,2.589-3.344,5.816-3.342,9.43c0.042,71.487,0.002,142.974,0.089,214.461
			c0.006,5.208-1.125,9.62-4.342,13.874c-4.278,5.658-7.96,11.775-11.762,17.781c-11.214,17.716-22.294,35.519-33.558,53.205
			c-8.696,13.653-17.662,27.136-26.378,40.776c-12.003,18.784-23.528,37.889-36.01,56.349c-4.402,6.509-5.16,12.029-2.709,19.299
			c8.895,26.381,19.464,51.997,33.274,76.192c5.327,9.334,11.177,18.369,17.501,28.704
			C226.591,732.482,247.077,697.778,267.563,663.073z"/>
		<path fill-rule="evenodd" clip-rule="evenodd" d="M267.563,663.073c-20.486,34.705-40.972,69.409-62.125,105.243
			c-6.324-10.335-12.174-19.37-17.501-28.704c-13.811-24.195-24.38-49.812-33.274-76.192c-2.451-7.27-1.693-12.79,2.709-19.299
			c12.482-18.46,24.007-37.564,36.01-56.349c8.716-13.641,17.682-27.123,26.378-40.776c11.264-17.686,22.343-35.489,33.558-53.205
			c3.802-6.006,7.484-12.124,11.762-17.781c3.217-4.254,4.349-8.666,4.342-13.874c-0.087-71.487-0.047-142.975-0.089-214.461
			c-0.002-3.614,0.229-6.84,3.342-9.43c2.548-2.119,4.446-2.39,6.732,0.247c5.873,6.778,11.905,13.418,17.806,20.173
			c8.08,9.251,16.083,18.567,24.144,27.834c10.895,12.525,21.791,25.047,32.746,37.519c1.371,1.561,3.104,2.801,5.081,4.556
			c8.564-13.514,16.747-26.469,24.975-39.396c6.117-9.611,12.323-19.167,18.438-28.778c11.609-18.248,23.15-36.54,34.783-54.771
			c6.134-9.613,12.438-19.116,18.596-28.713c6.781-10.567,13.333-21.287,20.337-31.702c1.472-2.189,4.327-4.445,6.808-4.792
			c12.138-1.695,24.339-3.33,36.568-3.889c14.135-0.647,28.345-0.658,42.479,0.002c12.396,0.578,24.745,2.335,37.072,3.905
			c1.995,0.254,4.453,1.796,5.541,3.486c10.817,16.808,21.317,33.819,32.059,50.676c9.233,14.492,18.735,28.812,27.988,43.292
			c11.375,17.802,22.557,35.726,33.929,53.53c7.975,12.484,16.126,24.855,24.705,38.056c4.355-4.748,8.427-9.016,12.311-13.449
			c10.721-12.235,21.361-24.539,32.035-36.815c10.672-12.276,21.251-24.637,32.108-36.747c1.989-2.219,5.525-5.195,7.636-4.711
			c4.189,0.958,6.028,4.874,6.021,9.704c-0.107,69.487,0.129,138.976-0.288,208.461c-0.063,10.481,2.419,19.147,8.12,27.768
			c17.77,26.862,35.076,54.03,52.489,81.126c15.447,24.036,30.802,48.13,46.172,72.215c0.707,1.107,0.879,2.676,1.777,3.525
			c9.314,8.811,7.082,18.383,3.321,29.066c-11.764,33.412-26.627,65.205-46.46,94.606c-0.729,1.081-1.534,2.11-2.676,3.673
			c-20.255-34.324-40.257-68.217-60.258-102.11c-0.584,0.163-1.169,0.326-1.753,0.489c-0.172,2.363-0.493,4.725-0.494,7.088
			c-0.029,52.49-0.205,104.981,0.189,157.47c0.054,7.255-2.686,12.247-7.508,16.383c-18.572,15.92-38.362,30.197-59.495,42.55
			c-6.941,4.058-14.082,7.771-22.001,12.12c-0.163-3.022-0.387-5.24-0.387-7.457c-0.018-114.646-0.015-229.292-0.017-343.938
			c-0.001-8.951-0.009-8.959-8.912-8.959c-35.161-0.004-70.321,0.078-105.481-0.079c-5.968-0.027-11.352,0.994-16.781,3.614
			c-10.316,4.981-20.887,9.455-31.459,13.883c-4.552,1.905-6.293,4.559-6.273,9.765c0.215,57.989,0.136,115.979,0.134,173.969
			c0,6.81-0.005,6.814-6.833,6.818c-5.499,0.003-10.999-0.063-16.497,0.009c-3.333,0.044-4.996-1.402-4.861-4.788
			c0.027-0.665-0.008-1.333-0.008-1.999c0.005-59.822-0.034-119.646,0.14-179.468c0.01-3.289-1.404-4.422-3.799-5.414
			c-17.96-7.438-35.931-14.854-53.887-22.302c-34.534-14.323-69.058-28.67-103.597-42.983c-2.114-0.876-4.318-1.533-7.488-2.645
			c0,137.529,0,274.319,0,412.409c-3.519-1.607-5.927-2.495-8.125-3.752c-7.308-4.179-14.865-8.027-21.74-12.841
			c-17.666-12.369-35.169-24.983-52.391-37.961c-4.683-3.529-7.333-8.473-7.286-15.39c0.366-53.985,0.202-107.975,0.202-161.962
			c0-2.278,0-4.558,0-6.837C268.763,663.413,268.163,663.243,267.563,663.073z M540.962,198.966
			c-2.822,4.764-5.061,8.553-7.308,12.337c-7,11.792-14.036,23.561-20.995,35.375c-7.375,12.521-14.66,25.094-22.015,37.626
			c-7.108,12.11-14.26,24.193-21.384,36.293c-7.19,12.211-14.351,24.44-21.563,36.639c-7.98,13.499-16.107,26.915-23.87,40.537
			c-0.896,1.572-0.632,4.744,0.409,6.29c2.389,3.549,5.604,6.539,8.456,9.781c10.088,11.469,20.198,22.919,30.236,34.431
			c12.761,14.634,25.449,29.332,38.192,43.982c11.001,12.648,22.103,25.209,33.02,37.928c4.77,5.557,9.823,5.625,14.533,0.049
			c7.815-9.253,15.715-18.439,23.702-27.545c12.918-14.729,25.992-29.321,38.896-44.06c15.415-17.607,30.665-35.36,46.138-52.916
			c2.228-2.526,2.768-4.556,1.037-7.461c-6.087-10.217-11.957-20.566-18.095-30.754c-6.701-11.121-13.813-21.998-20.371-33.201
			c-7.577-12.941-14.588-26.215-22.13-39.18c-10.635-18.283-21.536-36.41-32.314-54.609
			C557.552,227.028,549.581,213.539,540.962,198.966z"/>
		<path fill-rule="evenodd" clip-rule="evenodd" fill="#FFFFFF" d="M540.962,198.966c8.619,14.572,16.59,28.062,24.574,41.542
			c10.778,18.199,21.68,36.327,32.314,54.609c7.542,12.964,14.553,26.238,22.13,39.18c6.559,11.203,13.67,22.081,20.371,33.201
			c6.138,10.188,12.008,20.537,18.095,30.754c1.73,2.905,1.19,4.935-1.037,7.461c-15.473,17.556-30.723,35.308-46.138,52.916
			c-12.904,14.739-25.979,29.331-38.896,44.06c-7.987,9.106-15.887,18.292-23.702,27.545c-4.71,5.576-9.764,5.508-14.533-0.049
			c-10.917-12.719-22.019-25.28-33.02-37.928c-12.743-14.65-25.431-29.348-38.192-43.982
			c-10.039-11.512-20.148-22.962-30.236-34.431c-2.852-3.242-6.067-6.231-8.456-9.781c-1.041-1.546-1.304-4.717-0.409-6.29
			c7.763-13.622,15.89-27.038,23.87-40.537c7.212-12.199,14.373-24.428,21.563-36.639c7.125-12.1,14.276-24.184,21.384-36.293
			c7.355-12.532,14.641-25.105,22.015-37.626c6.958-11.815,13.995-23.584,20.995-35.375
			C535.901,207.519,538.14,203.73,540.962,198.966z"/>
	</g>
</g>
</svg>
